<?xml version="1.0" encoding="utf-8"?>
<!-- Generator: Adobe Illustrator 22.0.1, SVG Export Plug-In . SVG Version: 6.00 Build 0)  -->
<svg version="1.1" id="Capa_1" xmlns="http://www.w3.org/2000/svg" xmlns:xlink="http://www.w3.org/1999/xlink" x="0px" y="0px"
	 viewBox="0 0 270 65" style="enable-background:new 0 0 270 65;" xml:space="preserve">
<style type="text/css">
	.st0{fill:#FFFFFF;}
</style>
<g>
	<g>
		<g>
			<g>
				<g>
					<rect x="7.1" y="39.5" class="st0" width="23.9" height="1.7"/>
				</g>
				<g>
					<rect x="198.5" y="32" class="st0" width="65.6" height="1.7"/>
				</g>
				<g>
					<g>
						<path class="st0" d="M19,2c2.4,0,4.4,0.2,6.2,0.6c1.7,0.4,3.3,1.2,4.5,2.3c1.4,1.3,2.2,2.9,2.4,4.8c0.2,1.9-0.4,3.6-1.6,5
							c-2.1,2.4-5.8,3.6-11.2,3.6H9.4H9.4c0.1,6.3,0.1,11,0.1,14.1c0,0.4-0.2,0.7-0.6,0.8c-0.4,0.2-0.8,0.2-1.2,0
							C7.2,33.1,7,32.9,7,32.5c0-3.3,0-8.2-0.1-14.8C6.9,11.2,6.8,6.2,6.8,2.9c0-0.3,0.1-0.5,0.4-0.7C7.5,2.1,7.7,2,8.1,2H19z
							 M19.8,16.4c3,0,5.4-0.6,7.3-1.8c1.9-1.2,2.7-2.9,2.5-5.2c-0.1-1.4-0.8-2.6-2.1-3.6c-1.3-1-2.8-1.6-4.6-1.9
							c-0.4-0.1-2-0.1-4.7-0.1h-9c0,2.8,0,7,0.1,12.5h0.1l5.2,0C18.1,16.5,19.8,16.5,19.8,16.4z"/>
						<path class="st0" d="M41,15.5v6.3c0,2.3,0.2,3.8,0.6,4.6c0.8,1.5,2,2.7,3.7,3.6c1.7,0.9,3.5,1.4,5.4,1.4
							c1.9,0.1,3.8-0.2,5.6-0.6c1.8-0.5,3.3-1.3,4.6-2.6c1.2-1.3,1.9-2.7,2-4.4c0.1-2.1,0.1-4.2,0.1-6.5c0-2.3,0-4.9-0.1-7.7
							c0-2.8-0.1-5-0.1-6.5c0-0.4,0.2-0.7,0.6-0.8c0.4-0.2,0.8-0.2,1.2,0c0.4,0.2,0.6,0.4,0.6,0.8v14.2c0,0.3,0,1.2,0.1,2.5
							c0,1.3,0,2.3,0,2.8c0,0.6-0.1,1.4-0.3,2.4c-0.2,1-0.5,1.9-0.9,2.7c-0.4,0.8-1,1.5-1.7,2.1c-2,1.8-4.5,2.9-7.6,3.4
							c-3.1,0.5-6.1,0.2-8.9-0.8c-2.9-1-4.9-2.6-6.2-4.8c-0.7-1.2-1.1-3-1.1-5.3v-7.1v-12c0-0.4,0.2-0.7,0.6-0.8
							c0.4-0.2,0.8-0.2,1.2,0C40.8,2.4,41,2.7,41,3.1V15.5z"/>
						<path class="st0" d="M74.3,3c0-0.6,0.4-0.9,1.2-0.9c0.8,0,1.2,0.3,1.2,0.9v28.4h21c0.5,0,0.8,0.2,1,0.5c0.2,0.3,0.2,0.6,0,1
							c-0.2,0.3-0.5,0.5-1,0.5H75.4c-0.3,0-0.6-0.1-0.8-0.3c-0.2-0.2-0.3-0.4-0.3-0.7V3z"/>
						<path class="st0" d="M120,31.5c2.3,0.2,4.5,0,6.6-0.4c2.1-0.4,3.6-1.3,4.5-2.6c0.9-1.3,1.2-2.6,0.7-4.1
							c-0.4-1.4-1.5-2.5-3.2-3.1c-0.7-0.3-1.5-0.5-2.3-0.6c-0.9-0.2-1.6-0.3-2.3-0.4c-0.6-0.1-1.5-0.1-2.5-0.2
							c-1.1-0.1-1.8-0.2-2.3-0.2c-3.9-0.5-6.6-1.3-8.1-2.6c-1.6-1.3-2.5-3.1-2.8-5.1c-0.2-2.5,0.8-4.7,3-6.6c2.2-1.9,4.9-3,8.1-3.3
							c3.8-0.4,7.2,0.4,10.2,2.2c3,1.9,4.6,4.3,4.8,7.3c0,0.4-0.2,0.7-0.6,0.8c-0.4,0.2-0.8,0.2-1.2,0c-0.4-0.2-0.6-0.4-0.6-0.8
							c-0.1-1.7-0.7-3.2-2-4.4c-1.2-1.3-2.8-2.1-4.6-2.6c-1.8-0.5-3.7-0.7-5.6-0.6c-1.9,0.1-3.7,0.6-5.3,1.6c-1.6,1-2.7,2.3-3.3,3.9
							c-0.8,1.9-0.5,3.6,0.7,5.3c0.5,0.6,1,1.1,1.7,1.6c0.7,0.4,1.5,0.7,2.5,1c1,0.2,1.8,0.4,2.4,0.5c0.6,0.1,1.5,0.2,2.7,0.3
							c1,0.1,1.7,0.1,2.1,0.2c0.4,0,1,0.1,2,0.2c1,0.1,1.7,0.2,2.2,0.4c0.5,0.1,1.1,0.3,1.9,0.5c0.8,0.2,1.4,0.5,1.9,0.7
							c0.4,0.3,0.9,0.6,1.4,1c0.5,0.4,0.9,0.8,1.2,1.3c0.3,0.5,0.5,1.1,0.6,1.7c0.2,1.3,0.1,2.6-0.4,3.8c-0.5,1.3-1.3,2.3-2.4,3.1
							c-1.9,1.3-4.8,2.1-8.8,2.3c-3.9,0.2-7.3-0.6-10.2-2.4c-2.9-1.8-4.5-4.2-4.6-7.2c0-0.4,0.2-0.7,0.6-0.8c0.4-0.2,0.8-0.2,1.2,0
							c0.4,0.2,0.6,0.4,0.6,0.8c0.1,2.1,1.1,3.8,3,5.3C115.1,30.5,117.3,31.3,120,31.5z"/>
						<path class="st0" d="M148.9,32.5c0,0.4-0.2,0.7-0.6,0.8c-0.4,0.2-0.8,0.2-1.2,0c-0.4-0.2-0.6-0.4-0.6-0.8V3.1
							c0-0.4,0.2-0.7,0.6-0.8c0.4-0.2,0.8-0.2,1.2,0c0.4,0.2,0.6,0.4,0.6,0.8V32.5z"/>
						<path class="st0" d="M174.9,2.7c0.9,2,3,6.5,6.1,13.5c3.1,7,5.6,12.3,7.3,16.1c0.2,0.4,0.1,0.7-0.2,0.9
							c-0.3,0.2-0.7,0.3-1.2,0.2c-0.4-0.1-0.8-0.3-0.9-0.6c-0.3-0.7-0.9-1.9-1.7-3.7c-0.8-1.8-1.4-3.1-1.8-4h-17.7
							c-1.9,4-3,6.6-3.6,7.6c-0.1,0.4-0.4,0.6-0.9,0.6c-0.4,0.1-0.8,0-1.1-0.2c-0.3-0.2-0.4-0.5-0.3-0.9c2-4.2,6.5-14,13.7-29.5
							c0.2-0.4,0.6-0.7,1.2-0.7S174.8,2.2,174.9,2.7z M165.7,23.2h16c-3.5-7.8-6.1-13.6-7.9-17.5c-1,2.2-2.4,5.3-4.3,9.3
							C167.6,18.9,166.4,21.7,165.7,23.2z"/>
					</g>
				</g>
			</g>
			<g>
				<path class="st0" d="M12.1,54.6l-2.6,0l0,9.1H8.8l0-9.1l-2.6,0v-0.4h2.6l0.8,0l2.6,0V54.6z"/>
				<path class="st0" d="M34,63.3v0.4l-4.2,0h-0.2h-0.6l0-9.5l5,0v0.4l-4.2,0l0,3.8l3.3,0v0.4l-3.3,0l0,4.5L34,63.3z"/>
				<path class="st0" d="M55.5,57.2l0-1.8c0-0.4-0.4-0.9-1-0.9l-1.8,0c-0.6,0-1,0.5-1,0.9l0,7.1c0,0.4,0.4,0.8,1,0.8l1.8,0
					c0.6,0,1-0.4,1-0.8l0-2l0.8,0l0,2c0,0.7-0.8,1.3-1.7,1.3l-1.9,0c-1,0-1.8-0.6-1.8-1.3l0-7.1c0-0.7,0.8-1.3,1.8-1.3l1.8,0
					c1,0,1.8,0.6,1.8,1.3l0,1.8H55.5z"/>
				<path class="st0" d="M79.5,54.2l0,9.5h-0.8l0-4.9l-4,0l0,4.9l-0.8,0l0-9.5h0.8l0,4.2l4,0l0-4.2L79.5,54.2z"/>
				<path class="st0" d="M102.9,54.3l0,9.5h-0.7h-0.1h-0.8l-3.1-9l0,9h-0.8l0-9.5H98h0.2l0.6,0l3.3,9.2l0-9.2H102.9z"/>
				<path class="st0" d="M126.3,55.5l0,7.1c0,0.7-0.8,1.3-1.8,1.3l-2,0c-1,0-1.8-0.6-1.8-1.3l0-7.1c0-0.7,0.8-1.3,1.8-1.3l2,0
					C125.5,54.3,126.3,54.9,126.3,55.5z M125.6,62.6l0-7.1c0-0.4-0.4-0.9-1-0.9l-2,0c-0.6,0-1,0.5-1,0.9l0,7.1c0,0.4,0.4,0.9,1,0.9
					h2C125.1,63.5,125.6,63,125.6,62.6z"/>
				<path class="st0" d="M148.8,63.4v0.4l-3.7,0h-0.8v-0.4l0-9.1h0.8l0,9.1L148.8,63.4z"/>
				<path class="st0" d="M171.5,55.6l0,7.1c0,0.7-0.8,1.3-1.8,1.3l-2,0c-1,0-1.8-0.6-1.8-1.3l0-7.1c0-0.7,0.8-1.3,1.8-1.3l2,0
					C170.7,54.3,171.5,54.9,171.5,55.6z M170.7,62.6l0-7.1c0-0.4-0.4-0.9-1-0.9h-2c-0.6,0-1,0.5-1,0.9l0,7.1c0,0.4,0.4,0.9,1,0.9
					l2,0C170.3,63.5,170.7,63,170.7,62.6z"/>
				<path class="st0" d="M194.9,59.5V60l0,2.7c0,0.7-0.8,1.3-1.8,1.3l-2,0c-1,0-1.8-0.6-1.8-1.3l0-7.1c0-0.7,0.8-1.3,1.8-1.3l1.9,0
					c1,0,1.7,0.6,1.7,1.3l0,1.8l-0.8,0l0-1.8c0-0.4-0.4-0.9-1-0.9h-1.8c-0.6,0-1,0.5-1,0.9l0,7.1c0,0.4,0.4,0.9,1,0.9l2,0
					c0.6,0,1-0.5,1-0.9l0-2.7l-2.2,0v-0.4L194.9,59.5z"/>
				<path class="st0" d="M213.7,63.9l-0.8,0l0-9.5h0.8L213.7,63.9z"/>
				<path class="st0" d="M236.7,63.5v0.4l-4.2,0h-0.2h-0.6l0-9.5l5,0l0,0.4l-4.2,0l0,3.8l3.4,0V59l-3.4,0l0,4.5L236.7,63.5z"/>
				<path class="st0" d="M259,60.8l0,1.9c0,0.7-0.8,1.3-1.8,1.3l-2,0c-1,0-1.7-0.6-1.7-1.3v-1.9l0.8,0l0,1.9c0,0.4,0.4,0.9,1,0.9
					l2,0c0.6,0,1-0.5,1-0.9l0-1.9c0-0.5-0.3-0.7-1-1c-0.7-0.4-1.6-0.8-2.4-1.2c-0.9-0.4-1.2-0.8-1.2-1.3v-1.6c0-0.7,0.8-1.3,1.8-1.3
					l1.6,0h0c1,0,1.8,0.6,1.8,1.3l0,1.9H258l0-1.9c0-0.4-0.4-0.9-1-0.9l-1.6,0c-0.6,0-1,0.5-1,0.9v1.5c0,0.7,0.4,0.8,1,1.1
					c0.6,0.3,1.9,0.9,2.5,1.2C259,60,259,60.5,259,60.8z"/>
			</g>
		</g>
	</g>
	<g>
		<path class="st0" d="M9.5,31.4c0,1.1-0.6,2-1.3,2s-1.3-0.9-1.3-2V4.1c0-1.1,0.6-2,1.3-2s1.3,0.9,1.3,2V31.4z"/>
	</g>
</g>
</svg>
